<?xml version="1.0" standalone="no"?>
<!DOCTYPE svg PUBLIC "-//W3C//DTD SVG 20010904//EN"
 "http://www.w3.org/TR/2001/REC-SVG-20010904/DTD/svg10.dtd">
<svg version="1.0" xmlns="http://www.w3.org/2000/svg"
 width="474.000000pt" height="160.000000pt" viewBox="0 0 474.000000 160.000000"
 preserveAspectRatio="xMidYMid meet">

<g transform="translate(0.000000,160.000000) scale(0.100000,-0.100000)"
fill="#000000" stroke="none">
<path d="M0 800 l0 -800 2370 0 2370 0 0 800 0 800 -2370 0 -2370 0 0 -800z
m585 464 c9 -9 13 -24 10 -34 -4 -13 2 -24 20 -36 22 -14 25 -23 25 -77 0 -48
-4 -65 -21 -83 -30 -32 -19 -56 23 -52 30 3 33 6 36 42 2 22 -2 50 -9 62 -15
28 -5 57 18 52 19 -4 19 -7 7 -100 -4 -32 -2 -48 5 -48 6 0 11 11 11 25 0 19
8 28 35 39 29 12 35 20 35 45 0 16 -4 33 -10 36 -16 10 -12 45 6 52 23 8 52
-23 36 -39 -7 -7 -12 -29 -12 -51 0 -34 -4 -40 -35 -53 -27 -11 -35 -20 -35
-40 0 -25 0 -25 83 -22 l82 3 3 37 c3 34 0 40 -32 59 -33 19 -36 25 -36 68 0
25 -7 56 -15 67 -12 18 -12 24 -1 39 8 11 20 16 30 12 18 -7 22 -42 6 -52 -5
-3 -10 -26 -10 -50 0 -38 4 -47 34 -70 29 -22 35 -34 38 -68 2 -30 8 -43 21
-45 14 -3 17 4 17 38 0 23 -4 49 -10 59 -12 24 11 57 34 48 17 -7 23 -57 6
-57 -5 0 -10 -16 -10 -36 0 -26 7 -43 25 -60 14 -13 25 -32 25 -44 0 -15 6
-20 29 -20 16 0 34 -7 41 -15 8 -10 31 -15 69 -15 54 0 57 2 85 40 31 41 62
52 72 25 8 -21 -15 -47 -36 -40 -10 3 -26 -5 -40 -20 -20 -21 -32 -25 -85 -25
-49 0 -66 4 -80 20 -10 11 -26 20 -37 20 -14 0 -18 -8 -18 -40 l0 -40 45 0
c25 0 54 5 64 12 22 14 51 4 51 -17 0 -21 -29 -31 -51 -17 -23 15 -109 16
-109 2 0 -5 14 -10 30 -10 25 0 33 -6 47 -35 14 -30 22 -35 50 -35 18 0 33 5
33 11 0 6 10 9 23 7 14 -2 23 -11 25 -26 4 -23 2 -23 -55 -17 -58 7 -93 30
-93 60 0 13 -21 25 -46 25 -11 0 -14 -19 -14 -90 l0 -90 39 0 c34 0 44 5 67
35 23 31 32 35 73 35 25 0 54 7 64 15 24 17 47 9 47 -16 0 -25 -27 -36 -51
-21 -10 7 -36 12 -58 12 -34 0 -42 -5 -61 -35 -20 -32 -25 -35 -71 -35 -43 0
-49 -3 -49 -21 0 -20 4 -21 72 -18 63 4 73 2 76 -14 4 -22 -25 -34 -49 -19
-31 20 -97 15 -109 -7 -5 -11 -22 -21 -37 -23 -21 -2 -29 -9 -31 -28 -2 -14
-10 -29 -18 -33 -10 -5 -14 -27 -14 -68 0 -58 1 -60 40 -87 45 -30 51 -65 13
-70 -22 -3 -27 4 -24 38 1 9 -10 27 -24 40 -34 32 -36 122 -4 156 30 32 19 56
-23 52 -30 -3 -33 -6 -36 -41 -2 -23 3 -48 12 -62 14 -21 14 -25 1 -39 -9 -8
-22 -13 -30 -10 -17 7 -20 40 -5 49 13 8 13 95 0 95 -5 0 -10 -10 -10 -23 0
-17 -10 -28 -35 -40 -27 -13 -35 -23 -35 -44 0 -14 7 -34 15 -43 13 -14 13
-19 1 -35 -21 -28 -50 -12 -41 23 3 15 9 43 12 63 4 29 12 39 40 53 23 11 33
22 31 34 -3 14 -16 17 -88 17 -74 0 -85 -2 -88 -18 -7 -34 7 -62 43 -85 32
-20 35 -27 35 -67 0 -25 6 -54 12 -65 10 -16 10 -23 -3 -35 -9 -9 -23 -13 -32
-9 -19 7 -23 39 -7 49 6 3 10 27 10 53 0 42 -4 49 -35 69 -28 19 -34 29 -37
65 -2 31 -8 44 -20 46 -15 3 -18 -4 -18 -37 0 -23 6 -50 13 -62 10 -17 9 -22
-6 -34 -11 -7 -25 -11 -33 -8 -16 6 -19 39 -4 48 6 3 10 24 10 45 0 29 -5 42
-20 50 -12 6 -20 21 -20 35 0 14 -6 25 -13 25 -8 0 -22 9 -32 20 -14 16 -31
20 -76 20 -57 0 -59 -1 -85 -40 -27 -41 -60 -53 -70 -25 -8 21 13 44 34 38 10
-2 28 7 41 21 21 22 33 26 82 26 47 0 62 -4 79 -22 25 -27 43 -14 38 28 -2 25
-8 29 -35 32 -18 2 -42 -3 -54 -12 -28 -19 -49 -10 -49 20 0 17 6 24 19 24 11
0 23 -4 26 -10 8 -13 85 -13 85 0 0 6 -8 10 -18 10 -11 0 -25 14 -35 35 -13
27 -23 35 -43 35 -14 0 -32 -7 -40 -15 -25 -25 -63 5 -44 36 7 11 15 11 43 1
18 -7 45 -12 58 -12 19 0 30 -9 42 -36 28 -58 42 -39 42 57 0 83 0 84 -27 87
-20 2 -32 -5 -53 -32 -24 -32 -33 -36 -74 -36 -25 0 -54 -7 -64 -15 -24 -17
-47 -9 -47 16 0 24 27 36 43 20 6 -6 32 -11 58 -11 43 0 49 3 69 34 17 28 28
35 58 38 25 2 37 8 37 18 0 18 -55 26 -82 12 -24 -13 -43 -4 -43 19 0 24 27
36 43 20 19 -19 75 -13 87 8 5 11 22 21 37 23 21 2 29 9 31 28 2 14 10 29 18
33 10 5 14 27 14 67 0 53 -3 61 -31 84 -17 14 -35 26 -40 26 -14 0 -11 48 4
53 6 3 13 6 14 6 1 1 9 -6 18 -15z m920 -311 c35 -122 38 -133 44 -128 3 4 17
45 31 93 l25 87 53 3 52 3 0 -150 0 -151 -35 0 -34 0 -3 93 -3 92 -25 -90 -25
-90 -40 0 -40 0 -20 75 -20 75 -5 -75 -5 -75 -35 0 -35 0 -3 148 -3 147 55 0
55 0 16 -57z m435 22 c0 -35 0 -35 -45 -35 -38 0 -45 -3 -45 -20 0 -17 7 -20
40 -20 39 0 40 -1 40 -35 0 -34 -1 -35 -40 -35 -36 0 -40 -2 -40 -25 0 -23 4
-25 45 -25 45 0 45 0 45 -35 l0 -35 -85 0 -85 0 0 150 0 150 85 0 85 0 0 -35z
m253 16 c15 -15 -4 -67 -23 -63 -84 19 -105 6 -105 -68 0 -64 21 -85 75 -75
19 4 40 7 45 8 6 1 10 -11 10 -28 0 -80 -160 -67 -202 16 -7 13 -13 49 -13 79
0 100 56 154 153 147 27 -2 53 -9 60 -16z m137 -36 l0 -55 39 0 40 0 3 53 3
52 40 0 40 0 0 -145 0 -145 -40 0 -40 0 -3 58 -3 57 -39 0 -39 0 -3 -57 -3
-58 -37 -3 -38 -3 0 150 0 151 40 0 40 0 0 -55z m437 -85 c24 -74 43 -141 43
-147 0 -8 -14 -13 -39 -13 -34 0 -40 4 -50 30 -9 27 -14 30 -51 30 -37 0 -42
-3 -51 -30 -10 -26 -16 -30 -48 -30 -21 0 -40 2 -43 5 -5 5 76 267 89 288 3 4
28 7 56 5 l51 -3 43 -135z m278 105 c0 -26 -4 -30 -32 -33 l-32 -3 -3 -112 -3
-112 -40 0 -40 0 -3 112 -3 112 -32 3 c-32 3 -45 23 -33 54 5 12 26 14 113 12
l108 -3 0 -30z m194 24 c17 -6 36 -19 41 -29 17 -31 11 -82 -11 -106 l-20 -22
35 -55 c20 -31 36 -61 36 -67 0 -5 -18 -10 -39 -10 -37 0 -41 3 -71 55 -17 30
-36 55 -41 55 -5 0 -9 -25 -9 -55 l0 -55 -40 0 -40 0 0 150 0 150 64 0 c34 0
77 -5 95 -11z m306 -3 c49 -21 75 -68 75 -136 0 -69 -26 -115 -77 -137 -42
-17 -113 -12 -148 11 -52 34 -71 139 -37 206 30 62 113 86 187 56z m275 -77
l45 -91 5 88 5 89 35 0 35 0 0 -145 0 -145 -50 -3 -50 -2 -52 97 -52 98 -1
-97 0 -98 -35 0 -35 0 0 150 0 150 53 0 53 0 44 -91z m265 -59 l0 -145 -40 0
-40 0 -3 134 c-1 74 0 141 3 149 3 9 18 12 42 10 l38 -3 0 -145z m267 132 c8
-8 8 -19 -1 -40 -12 -28 -14 -29 -51 -19 -55 15 -80 -8 -80 -74 0 -41 4 -51
25 -65 23 -15 45 -15 89 2 13 5 16 -1 16 -30 0 -30 -5 -38 -26 -46 -63 -24
-143 1 -171 54 -23 43 -23 135 0 170 31 47 75 68 135 63 29 -2 58 -9 64 -15z
m231 -1 c6 -6 6 -19 0 -38 -7 -20 -15 -27 -29 -24 -35 8 -73 6 -75 -4 -1 -5
20 -21 46 -35 55 -30 67 -48 63 -97 -2 -30 -10 -42 -38 -61 -29 -20 -43 -23
-87 -19 -67 7 -73 11 -73 53 0 35 1 35 33 28 91 -21 112 1 38 41 -30 17 -54
38 -61 55 -18 43 2 93 45 111 24 11 124 4 138 -10z m-2095 -439 c2 -55 6 -72
17 -72 8 0 15 -4 15 -10 0 -5 -18 -10 -40 -10 -40 0 -53 13 -25 24 17 6 22
111 5 121 -17 10 -11 27 8 23 14 -3 18 -16 20 -76z m1266 62 c3 -9 6 -42 6
-75 0 -33 4 -59 10 -59 6 0 10 -4 10 -10 0 -5 -15 -10 -34 -10 -19 0 -38 5
-41 10 -3 6 1 10 9 10 13 0 16 13 16 65 0 39 -4 65 -11 65 -5 0 -7 5 -4 10 9
15 32 12 39 -6z m-1999 -24 c-5 -8 -11 -8 -17 -2 -6 6 -7 16 -3 22 5 8 11 8
17 2 6 -6 7 -16 3 -22z m1050 10 c0 -7 -6 -15 -12 -17 -8 -3 -13 4 -13 17 0
13 5 20 13 18 6 -3 12 -11 12 -18z m-712 -24 l22 -7 -22 -9 c-31 -13 -33 -69
-3 -77 30 -8 24 -25 -7 -21 -25 3 -28 8 -31 43 -2 22 -8 45 -13 52 -7 8 -4 18
8 33 14 16 19 17 21 6 2 -7 13 -17 25 -20z m607 19 c0 -8 7 -15 15 -15 8 0 15
-4 15 -10 0 -5 -7 -10 -15 -10 -11 0 -15 -11 -15 -39 0 -33 4 -40 23 -44 19
-3 20 -4 5 -11 -32 -14 -48 1 -48 43 0 28 -5 43 -17 50 -17 9 -17 10 0 16 9 4
17 13 17 21 0 8 5 14 10 14 6 0 10 -7 10 -15z m896 -15 c19 0 18 -16 -1 -24
-9 -3 -15 -19 -15 -41 0 -28 4 -35 20 -35 11 0 20 -5 20 -11 0 -6 -12 -9 -27
-7 -25 3 -28 8 -31 43 -2 22 -8 45 -13 52 -7 8 -4 18 8 33 15 17 19 18 21 5 2
-8 10 -15 18 -15z m434 15 c0 -8 7 -15 15 -15 8 0 15 -4 15 -10 0 -5 -7 -10
-15 -10 -11 0 -15 -11 -15 -39 0 -33 4 -40 23 -44 19 -3 20 -4 5 -11 -33 -15
-48 0 -48 48 0 26 -5 47 -12 50 -10 5 -10 7 0 12 6 3 12 12 12 20 0 8 5 14 10
14 6 0 10 -7 10 -15z m-2628 -24 c29 16 68 -13 68 -51 0 -48 -48 -78 -78 -48
-9 9 -12 5 -12 -20 0 -18 -4 -32 -10 -32 -6 0 -10 34 -10 82 0 62 3 79 12 70
8 -8 17 -8 30 -1z m168 -1 c0 -5 -11 -10 -25 -10 -23 0 -25 -3 -25 -50 0 -27
-4 -50 -10 -50 -11 0 -14 103 -3 113 10 11 63 8 63 -3z m108 -6 c41 -28 18
-104 -31 -104 -53 0 -77 75 -35 104 12 9 27 16 33 16 6 0 21 -7 33 -16z m192
-4 c30 -30 25 -40 -20 -40 -29 0 -40 -4 -40 -15 0 -24 29 -29 50 -10 11 10 23
15 27 12 10 -10 -28 -47 -49 -47 -24 0 -58 35 -58 60 0 23 33 60 55 60 8 0 24
-9 35 -20z m131 -1 c11 -11 18 -23 15 -27 -4 -3 -12 0 -18 6 -17 17 -55 15
-62 -4 -7 -20 10 -54 28 -54 8 0 19 7 26 15 7 8 17 12 22 9 15 -9 -23 -44 -48
-44 -25 0 -54 34 -54 62 0 22 34 58 55 58 8 0 24 -9 36 -21z m275 4 c19 -19 2
-32 -19 -15 -7 7 -18 7 -27 2 -10 -6 -4 -12 23 -24 38 -15 46 -33 25 -54 -25
-25 -78 -8 -78 27 0 12 3 11 18 -2 21 -19 38 -22 47 -7 3 5 -10 16 -30 24 -38
16 -45 39 -17 55 25 15 38 13 58 -6z m122 1 c42 -29 16 -104 -37 -104 -24 0
-51 32 -51 61 0 27 30 59 55 59 6 0 21 -7 33 -16z m164 -38 c2 -22 8 -41 14
-43 20 -7 44 27 44 63 0 21 4 33 10 29 6 -3 10 -31 10 -61 0 -30 -4 -54 -10
-54 -5 0 -10 5 -10 10 0 6 -8 5 -20 -2 -15 -10 -25 -10 -38 -2 -20 13 -38 74
-28 100 10 26 24 5 28 -40z m376 38 c41 -28 18 -104 -31 -104 -53 0 -77 75
-35 104 12 9 27 16 33 16 6 0 21 -7 33 -16z m87 6 c9 15 31 12 49 -6 18 -17
23 -104 6 -104 -5 0 -10 17 -10 39 0 73 -56 74 -62 1 -4 -49 -22 -44 -26 9 -4
57 3 77 22 62 10 -8 16 -9 21 -1z m161 -4 c24 -18 13 -31 -15 -17 -12 7 -22 7
-26 1 -3 -5 8 -16 25 -25 38 -19 40 -52 5 -61 -30 -8 -53 0 -61 21 -9 23 6 33
17 12 11 -19 34 -23 44 -7 4 6 -7 15 -23 21 -37 13 -46 33 -26 54 19 19 35 19
60 1z m210 -11 c32 -43 -1 -104 -50 -91 -20 5 -25 2 -28 -14 -2 -12 -7 -22
-13 -23 -10 -2 -20 116 -12 137 8 20 87 13 103 -9z m65 -33 l16 -47 17 53 c11
33 22 50 28 44 5 -5 2 -28 -9 -58 -26 -68 -50 -67 -74 3 -9 28 -15 54 -11 57
9 9 16 -2 33 -52z m387 50 c10 9 18 9 33 0 14 -9 25 -10 40 -2 32 18 49 -4 49
-61 0 -27 -4 -49 -10 -49 -5 0 -10 21 -10 46 0 41 -2 45 -22 42 -19 -2 -24
-10 -26 -45 -4 -58 -22 -55 -22 3 0 41 -2 45 -22 42 -18 -2 -24 -11 -26 -38
-6 -64 -22 -57 -22 10 0 49 3 61 12 52 9 -9 15 -9 26 0z m-2090 -51 c2 -24 -2
-57 -9 -72 -14 -34 -35 -40 -24 -6 14 42 18 107 6 107 -6 0 -11 5 -11 11 0 6
8 9 18 7 12 -2 18 -15 20 -47z m1042 9 c0 -27 5 -43 15 -46 8 -4 15 -10 15
-15 0 -12 -67 -11 -75 1 -3 6 1 10 9 10 12 0 16 10 16 35 0 19 -4 35 -10 35
-5 0 -10 5 -10 10 0 6 9 10 20 10 17 0 20 -7 20 -40z"/>
<path d="M555 1251 c-6 -11 9 -23 19 -14 9 9 7 23 -3 23 -6 0 -12 -4 -16 -9z"/>
<path d="M820 1240 c0 -5 7 -10 16 -10 8 0 12 5 9 10 -3 6 -10 10 -16 10 -5 0
-9 -4 -9 -10z"/>
<path d="M775 1160 c3 -5 10 -10 16 -10 5 0 9 5 9 10 0 6 -7 10 -16 10 -8 0
-12 -4 -9 -10z"/>
<path d="M675 1110 c-3 -5 1 -10 9 -10 9 0 16 5 16 10 0 6 -4 10 -9 10 -6 0
-13 -4 -16 -10z"/>
<path d="M952 1101 c2 -7 7 -12 11 -12 12 1 9 15 -3 20 -7 2 -11 -2 -8 -8z"/>
<path d="M406 941 c-4 -5 -2 -12 3 -15 5 -4 12 -2 15 3 4 5 2 12 -3 15 -5 4
-12 2 -15 -3z"/>
<path d="M1280 930 c0 -5 5 -10 10 -10 6 0 10 5 10 10 0 6 -4 10 -10 10 -5 0
-10 -4 -10 -10z"/>
<path d="M1146 821 c-4 -5 -2 -12 3 -15 5 -4 12 -2 15 3 4 5 2 12 -3 15 -5 4
-12 2 -15 -3z"/>
<path d="M265 800 c4 -6 11 -8 16 -5 14 9 11 15 -7 15 -8 0 -12 -5 -9 -10z"/>
<path d="M346 761 c-4 -5 -2 -12 3 -15 5 -4 12 -2 15 3 4 5 2 12 -3 15 -5 4
-12 2 -15 -3z"/>
<path d="M1196 721 c-4 -5 -2 -12 3 -15 5 -4 12 -2 15 3 4 5 2 12 -3 15 -5 4
-12 2 -15 -3z"/>
<path d="M1272 671 c4 -13 18 -16 19 -4 0 4 -5 9 -11 12 -7 2 -11 -2 -8 -8z"/>
<path d="M396 661 c-4 -5 -2 -12 3 -15 5 -4 12 -2 15 3 4 5 2 12 -3 15 -5 4
-12 2 -15 -3z"/>
<path d="M260 534 c0 -8 5 -12 10 -9 6 3 10 10 10 16 0 5 -4 9 -10 9 -5 0 -10
-7 -10 -16z"/>
<path d="M1130 541 c0 -6 5 -13 10 -16 6 -3 10 1 10 9 0 9 -4 16 -10 16 -5 0
-10 -4 -10 -9z"/>
<path d="M556 382 c-3 -6 -1 -14 5 -17 15 -10 25 3 12 16 -7 7 -13 7 -17 1z"/>
<path d="M836 372 c-3 -6 -1 -14 5 -17 15 -10 25 3 12 16 -7 7 -13 7 -17 1z"/>
<path d="M735 310 c3 -5 10 -10 16 -10 5 0 9 5 9 10 0 6 -7 10 -16 10 -8 0
-12 -4 -9 -10z"/>
<path d="M690 230 c0 -5 5 -10 10 -10 6 0 10 5 10 10 0 6 -4 10 -10 10 -5 0
-10 -4 -10 -10z"/>
<path d="M956 231 c-4 -5 -2 -12 3 -15 5 -4 12 -2 15 3 4 5 2 12 -3 15 -5 4
-12 2 -15 -3z"/>
<path d="M2652 880 c-10 -39 -9 -40 15 -40 23 0 25 3 19 31 -3 17 -6 35 -6 40
0 5 -4 9 -9 9 -5 0 -13 -18 -19 -40z"/>
<path d="M3160 915 c0 -22 4 -26 23 -23 14 2 22 10 22 23 0 13 -8 21 -22 23
-19 3 -23 -1 -23 -23z"/>
<path d="M3447 922 c-11 -12 -17 -36 -17 -65 0 -38 4 -49 24 -62 47 -31 93 22
80 92 -10 51 -56 69 -87 35z"/>
<path d="M1383 534 c-8 -22 10 -49 32 -49 10 0 22 7 28 16 15 24 1 49 -28 49
-15 0 -28 -7 -32 -16z"/>
<path d="M1613 534 c-8 -22 10 -49 32 -49 10 0 22 7 28 16 15 24 1 49 -28 49
-15 0 -28 -7 -32 -16z"/>
<path d="M1819 549 c-10 -6 -7 -9 14 -9 29 0 35 5 14 13 -8 3 -20 1 -28 -4z"/>
<path d="M2333 534 c-8 -22 10 -49 32 -49 10 0 22 7 28 16 15 24 1 49 -28 49
-15 0 -28 -7 -32 -16z"/>
<path d="M2873 534 c-8 -22 10 -49 32 -49 22 0 40 27 32 49 -8 21 -56 21 -64
0z"/>
<path d="M3338 552 c-27 -5 -24 -59 3 -67 28 -9 53 16 45 43 -8 23 -23 30 -48
24z"/>
</g>
</svg>
